<?xml version="1.0" encoding="utf-8"?>
<!-- Generator: Adobe Illustrator 18.0.0, SVG Export Plug-In . SVG Version: 6.00 Build 0)  -->
<!DOCTYPE svg PUBLIC "-//W3C//DTD SVG 1.1//EN" "http://www.w3.org/Graphics/SVG/1.1/DTD/svg11.dtd">
<svg version="1.1" id="Logo" xmlns="http://www.w3.org/2000/svg" xmlns:xlink="http://www.w3.org/1999/xlink" x="0px" y="0px"
	 viewBox="0 0 200 80" enable-background="new 0 0 200 80" xml:space="preserve">
<rect x="-42.8" y="-95.9" display="none" fill="#681D2C" width="292.5" height="277"/>
<g id="Logo_1_">
	<g id="Bouquetin">
		<path id="Dos" fill="#D3AD8F" d="M166.9,13.2c0,0,2.9-2.8,3.4-3c0.4-0.3,3.5-0.2,3.5-0.2V8.5l3.6,1.1l0.9-1.9l11.8,16.5L179.7,13
			l-8.8-2L166.9,13.2z"/>
		<path id="Queue" fill="#7A5F47" d="M150.8,19.3c0,0-1.8-1.7-2.1-2.3c-0.3-0.6,0.3-1.8,0.3-1.8s-2.2,1.2-2.2,1.7
			c-0.3,0.8,0.1,1.8,0,1.9c-0.2,0.2-1.2-0.7-1.2-0.7s0.1,1.8,0.2,2.1c0.1,0.3,0.8,1.9,1.8,1.9C148.8,22.2,150.8,19.3,150.8,19.3z"/>
		<path id="Patte2" fill="#7A5F47" d="M160,24.4c0,0,1.1,2.9-1.6,5.7c-2.7,2.8-3.8,2.4-3.8,2.4l2.8,5.8h-3.2l-4.3-6.6l5.7-5.3
			L160,24.4z"/>
		<path id="Patte21" fill="#A27B5D" d="M156.8,24.3c0,0-2.2,4.6-5,6.7c-2.8,2-9.5,2.1-9.5,2.1l-4.4,5.2h-1.2l4.7-6.1l11.3-8.9
			L156.8,24.3z"/>
		<polygon id="Patte12" fill="#7A5F47" points="162.7,38.3 164.9,38.3 169.7,28.7 166.1,27 		"/>
		<path id="Corps" fill="#BF906B" d="M134.2,38.3c0,0,4-6.1,5.2-7.2c1.2-1.2,3-0.8,4.5-2.5c1.5-1.7,2.1-2.2,2.8-3.3
			c0.7-1.1-0.2-3.1,1-4.8s6.7-2.3,12.7-4.7c6-2.4,10.4-4.8,10.4-4.8l8.8,2l10.5,11.2l-9.7,8.5l-2.4-2.4l4.7-6.5l-3.3,0.4l-11.7,1.5
			l6.2,4.3l-1.4,4.8l-1.4-1.3l1.2-2.7l-7.1-3.1l0-1.6c0,0-9.7,0.7-10.1,0.3s-2.7-2.8-2.7-2.8s-2.8,3.9-3.6,4.8
			c-0.8,0.9-5.9,2.7-7.1,3.6c-1.2,0.9-5.2,6.3-5.2,6.3L134.2,38.3L134.2,38.3z"/>
		<polygon id="Patte1" fill="#D3AD8F" points="172.1,16.5 173.8,20.3 171.2,25.5 175.6,29.9 172.9,35.1 172.6,34.9 174,30.1 
			167.7,26.2 		"/>
		<polygon id="Ventre" fill="#A27B5D" points="163.2,26.3 165.4,26.2 165.5,20.9 		"/>
		<polygon id="Cou" fill="#A27B5D" points="182.9,23.8 178.2,30.3 179.6,24.3 		"/>
		<path fill="#CEC4B9" d="M190.2,24.2c0,0,8.1-5.2,8-11.5C197.9,3.4,187,2,187,2s6.2,4.2,6.7,8.7c0.5,4.4-1.6,6.4-2.6,6.9
			c-1.2,0.6-5,0.8-5,0.8L190.2,24.2z"/>
	</g>
</g>
<g>
	<path fill="#FFFFFF" d="M2.4,73.2V52.5l4.9-4.9h13.4l4.9,4.9v6.8h-8.4v-3.8l-0.9-0.9h-4.5l-0.9,0.9v14.9l1,1h4.4l0.9-0.9v-2.9h-2.3
		v-6.2h10.8v12l-4.9,5H7.3L2.4,73.2z M7.5,77.4h12.9l4.4-4.4V61.9h-9.2v4.8h2.3v3.8L16.3,72h-4.7l-1.5-1.5V55.2l1.5-1.5h4.8l1.5,1.5
		v3.3h6.9v-5.8l-4.4-4.4H7.5l-4.4,4.4V73L7.5,77.4z M4.1,72.4V53.2l4-4h11.8l4,4v4.3h-5.1v-3l-1.9-1.9H11l-1.9,1.9v16.4l1.9,1.9h5.9
		l1.9-1.9v-5.3h-2.2v-2.9h7.3v9.6l-4,4H8.1L4.1,72.4z"/>
	<path fill="#FFFFFF" d="M25.8,78.2v-6.9h1.8V54.5h-1.8v-6.9h18.9l4.9,4.9v7.9l-2,2l2,2v7h1.8v6.9H41.2V66.7l-0.9-0.9H36v5.5h1.8
		v6.9L25.8,78.2L25.8,78.2z M37.1,77.4V72h-1.8v-7h5.3l1.4,1.4v11.1h8.7V72h-1.8v-7.4l-2.3-2.4l2.3-2.4v-7.1l-4.5-4.5H26.5v5.4h1.8
		V72h-1.8v5.5H37.1z M27.5,76.5V73h1.8V52.8h-1.8v-3.5H44l4,4v6.2l-2.8,2.8l2.8,2.8v7.9h1.8v3.5h-6.9V65.9L41,64h-6.6v8.9h1.8v3.5
		L27.5,76.5L27.5,76.5z M41,60.6l1.9-1.9v-4.1L41,52.7h-6.7v7.8L41,60.6L41,60.6z M35.3,59.6v-5.9h5.1l1.6,1.6v2.8l-1.6,1.5
		L35.3,59.6L35.3,59.6z M40.2,58.9l1-0.9v-2.5l-1-1H36v4.4L40.2,58.9L40.2,58.9z"/>
	<path fill="#FFFFFF" d="M52,78.2v-6.9h1.8V54.5H52v-6.9h22.5v8.1h-6.9v-1.2h-5.4v4.9h1.2v-1.2h6.9v9.2h-6.9v-1.2h-1.2v5h5.4v-1.2
		h6.9v8.1L52,78.2L52,78.2z M73.7,77.4v-6.6h-5.4V72h-6.8v-6.5h2.7v1.2h5.4V59h-5.4v1.2h-2.7v-6.5h6.8v1.2h5.4v-6.6h-21v5.4h1.8V72
		h-1.8v5.4H73.7z M53.7,76.5V73h1.8V52.8h-1.8v-3.5h19.1V54h-3.5v-1.2h-8.7v8.3h4.6V60h3.5v5.9h-3.5v-1.2h-4.6V73h8.7v-1.2h3.5v4.7
		L53.7,76.5L53.7,76.5z"/>
	<path fill="#FFFFFF" d="M73.8,78.2v-6.9h1.8V54.5h-1.8v-6.9h9.9l8.4,14v-7.1h-1.8v-6.9h12.1v6.9h-1.8v16.8h1.8v6.9H92.3L84,64.4
		v6.8h1.8v6.9H73.8z M85.1,77.5V72h-1.8V61.8l9.3,15.6h9V72h-1.8V53.7h1.8v-5.4H91v5.4h1.8v10.5l-9.5-15.9h-8.8v5.4h1.8V72h-1.8v5.5
		H85.1z M75.4,76.5V73h1.8V52.8h-1.8v-3.5h7.1l11.3,18.8V52.8h-1.9v-3.5h8.7v3.5h-1.9V73h1.9v3.5h-7.3L82.3,58v15h1.8v3.5L75.4,76.5
		L75.4,76.5z"/>
	<path fill="#FFFFFF" d="M103.5,73.2V52.5l4.9-4.9h13.5l4.9,4.9v20.8l-4.9,4.9h-13.5L103.5,73.2z M108.6,77.4h13L126,73V52.7
		l-4.5-4.5h-12.9l-4.4,4.4V73L108.6,77.4z M105.2,72.4V53.3l4-4H121l4,4v19.1l-4,4h-11.8L105.2,72.4z M112.1,72.9h6l1.9-1.9V54.7
		l-1.9-1.9h-6l-1.9,1.9v16.4L112.1,72.9z M111.1,70.5V55.2l1.5-1.5h4.9l1.5,1.5v15.3l-1.5,1.5h-4.9L111.1,70.5z M112.9,71.3h4.5
		l0.9-0.9V55.4l-0.9-0.9h-4.5l-0.9,0.9v14.9L112.9,71.3z"/>
	<path fill="#FFFFFF" d="M126.7,78.2v-6.9h1.8V54.5h-1.8v-6.9h18.9l4.9,4.9v7.9l-2,2l2,2v8.9l-4.9,4.9H126.7z M145.2,77.4l4.5-4.5
		v-8.3l-2.3-2.3l2.3-2.3v-7.4l-4.5-4.5h-17.9v5.4h1.8V72h-1.8v5.5H145.2z M128.3,76.5V73h1.8V52.8h-1.8v-3.5h16.4l4,4v6.2l-2.8,2.8
		l2.8,2.8v7.4l-4,4L128.3,76.5L128.3,76.5z M141.8,60.6l1.9-1.9v-4.1l-1.9-1.9h-6.6v7.8L141.8,60.6L141.8,60.6z M141.8,72.9l1.9-1.9
		v-5.1l-1.9-1.9h-6.6v8.9L141.8,72.9L141.8,72.9z M136.1,59.6v-5.9h5.1l1.6,1.6v2.8l-1.6,1.6L136.1,59.6L136.1,59.6z M136.1,72v-7
		h5.1l1.6,1.6v3.8l-1.6,1.6C141.2,72,136.1,72,136.1,72z M141.1,58.9l1-1v-2.4l-1-1h-4.2v4.4L141.1,58.9L141.1,58.9z M141.1,71.3
		l1-1v-3.5l-1-1h-4.2v5.5L141.1,71.3L141.1,71.3z"/>
	<path fill="#FFFFFF" d="M151,78.2v-6.9h1.8V54.5H151v-6.9h12.1v6.9h-1.8v16.8h5.5v-1.8h6.9v8.7L151,78.2L151,78.2z M172.9,77.4
		v-7.2h-5.4V72h-7.1V53.7h1.9v-5.4h-10.6v5.4h1.8V72h-1.8v5.4H172.9z M152.7,76.5V73h1.8V52.8h-1.8v-3.5h8.7v3.5h-1.8V73h8.9v-1.8
		h3.5v5.3C171.9,76.5,152.7,76.5,152.7,76.5z"/>
	<path fill="#FFFFFF" d="M175.7,78.2v-6.9h1.8V54.5h-1.8v-6.9h22.5v8.1h-6.9v-1.2h-5.4v4.9h1.2v-1.2h6.9v9.2h-6.9v-1.2h-1.2v5h5.4
		v-1.2h6.9v8.1L175.7,78.2L175.7,78.2z M197.4,77.4v-6.6H192V72h-6.8v-6.5h2.7v1.2h5.4V59h-5.4v1.2h-2.7v-6.5h6.8v1.2h5.4v-6.6h-21
		v5.4h1.8V72h-1.8v5.4H197.4z M177.4,76.5V73h1.8V52.8h-1.8v-3.5h19.1V54h-3.5v-1.2h-8.7v8.3h4.6V60h3.5v5.9h-3.5v-1.2h-4.6V73h8.7
		v-1.2h3.5v4.7L177.4,76.5L177.4,76.5z"/>
</g>
<g>
	<path fill="#FFFFFF" d="M2.4,38.5v-7H4V14.5H2.4v-7h8.6l6.2,12l6.2-12H32v7h-1.6v17.1H32v7H21.4v-7H23v-8.1l-5.8,11.2l-5.8-11.2
		v8.1h1.6v7C12.9,38.5,2.4,38.5,2.4,38.5z M12.3,37.8v-5.5h-1.6V21.1l6.5,12.6l6.5-13.1v11.6h-1.6v5.5h9.3v-5.5h-1.6V13.8h1.6V8.3
		h-7.8l-6.4,12.3L10.8,8.3H3v5.5h1.5v18.5H3v5.5H12.3z M3.9,36.8v-3.5h1.5V12.8H3.9V9.2h5.9l7.4,14.2l7.4-14.2h6v3.5h-1.6v20.5h1.6
		v3.5h-7.7v-3.5h1.6V17.6l-7.3,14.2L9.8,17.6v15.6h1.6v3.5L3.9,36.8L3.9,36.8z"/>
	<path fill="#FFFFFF" d="M36.6,38.5v-7h1.6V14.5h-1.6v-7h10.6v7h-1.6v17.1h1.6v7C47.2,38.5,36.6,38.5,36.6,38.5z M46.6,37.8v-5.5
		h-1.6V13.8h1.6V8.3h-9.3v5.5h1.6v18.6h-1.6v5.5L46.6,37.8L46.6,37.8z M38.2,36.8v-3.5h1.5V12.8h-1.5V9.2h7.6v3.5h-1.6v20.5h1.6v3.5
		L38.2,36.8L38.2,36.8z"/>
	<path fill="#FFFFFF" d="M52.2,38.5v-7h1.6l4.9-17.1h-1.2v-7h14.2v7h-1.3l4.9,17.1h1.5v7H66.6v-7h0.9l-0.4-1.5H62l-0.5,1.5h0.9v7
		C62.4,38.5,52.2,38.5,52.2,38.5z M61.8,37.8v-5.5h-1l0.6-2.9h6.3l0.6,2.9h-1v5.5h9v-5.5h-1.5l-5.1-18.5h1.5V8.3H58.2v5.5h1.3
		l-5.1,18.5h-1.5v5.5H61.8z M53.7,36.8v-3.5h1.2l5.8-20.5H59V9.3h11.3v3.5h-1.9l5.8,20.5h1.2v3.5h-7.3v-3.5h1.5l-1.4-4.9h-7.3
		l-1.4,4.8h1.5v3.5L53.7,36.8L53.7,36.8z M67.4,25.8l-2.9-10.1l-2.9,10.1H67.4z M62.9,24.9l1.6-6.2l1.6,6.2H62.9z M65.4,24.2l-0.9-3
		l-0.9,3H65.4z"/>
	<path fill="#FFFFFF" d="M81.6,33.5V12.5l4.3-4.9h11.7l4.3,5v6.9h-7.4v-3.9l-0.9-1h-3.9l-0.9,1v15.1l0.9,1h3.9l0.9-1v-3h-2v-6.3h9.4
		v12.2l-4.3,5H85.8L81.6,33.5z M86.1,37.8h11.3l3.8-4.4V22h-8.1v4.8h2v3.9l-1.3,1.5h-4.2l-1.3-1.5V15.3l1.3-1.5h4.2l1.3,1.5v3.4h6.1
		v-5.9l-3.9-4.5H86.1l-3.8,4.4v20.6L86.1,37.8z M83.1,32.7V13.2l3.5-4h10.3l3.5,4.1v4.4H96v-3l-1.6-1.9h-5.2l-1.6,1.9v16.6l1.6,1.9
		h5.2l1.6-1.9v-5.4h-1.9v-3h6.4v9.8l-3.5,4.1H86.6L83.1,32.7z"/>
	<path fill="#FFFFFF" d="M106.4,38.5v-7h1.6V14.5h-1.6v-7H126v8.3h-6v-1.2h-4.7v5h1.1v-1.2h6.1v9.4h-6.1v-1.2h-1.1v5h4.7v-1.3h6v8.3
		L106.4,38.5L106.4,38.5z M125.4,37.8v-6.7h-4.7v1.2h-6v-6.5h2.4V27h4.7v-7.9H117v1.2h-2.4v-6.5h6V15h4.7V8.3H107v5.5h1.5v18.5H107
		v5.5H125.4z M107.9,36.8v-3.5h1.5V12.8h-1.5V9.2h16.7V14h-3.1v-1.2h-7.6v8.5h4V20h3.1v6h-3.1v-1.2h-4v8.5h7.6V32h3.1v4.8
		L107.9,36.8L107.9,36.8z"/>
</g>
</svg>
