<?xml version="1.0" encoding="utf-8"?>
<!-- Generator: Adobe Illustrator 18.0.0, SVG Export Plug-In . SVG Version: 6.00 Build 0)  -->
<!DOCTYPE svg PUBLIC "-//W3C//DTD SVG 1.1//EN" "http://www.w3.org/Graphics/SVG/1.1/DTD/svg11.dtd">
<svg version="1.1" id="Logo" xmlns="http://www.w3.org/2000/svg" xmlns:xlink="http://www.w3.org/1999/xlink" x="0px" y="0px"
	 viewBox="0 0 464 186" enable-background="new 0 0 464 186" xml:space="preserve">
<rect x="-100" y="-223" display="none" fill="#681D2C" width="680" height="644"/>
<g id="Logo_1_">
	<g id="Bouquetin">
		<path id="Dos" fill="#D3AD8F" d="M387.5,30.6c0,0,6.8-6.5,7.9-7c1-0.6,8.2-0.5,8.2-0.5v-3.3l8.4,2.6l2.2-4.4l27.5,38.4l-24.3-26.1
			l-20.5-4.6L387.5,30.6z"/>
		<path id="Queue" fill="#7A5F47" d="M350,44.9c0,0-4.1-3.9-4.8-5.3c-0.7-1.3,0.8-4.1,0.8-4.1s-5.2,2.8-5.2,4
			c-0.8,1.8,0.3,4.1,0,4.4c-0.4,0.4-2.7-1.6-2.7-1.6s0.2,4.1,0.5,4.8c0.3,0.7,1.8,4.5,4.3,4.4C345.5,51.5,350,44.9,350,44.9z"/>
		<path id="Patte2" fill="#7A5F47" d="M371.6,56.7c0,0,2.5,6.7-3.8,13.3c-6.3,6.5-8.8,5.5-8.8,5.5l6.5,13.6H358l-10.1-15.4
			l13.3-12.3L371.6,56.7z"/>
		<path id="Patte21" fill="#A27B5D" d="M364,56.6c0,0-5.2,10.8-11.7,15.5c-6.5,4.6-22.2,4.9-22.2,4.9l-10.2,12.1h-2.8L328,75
			l26.2-20.6L364,56.6z"/>
		<polygon id="Patte12" fill="#7A5F47" points="377.7,89.1 382.8,89.1 394.1,66.7 385.7,62.7 		"/>
		<path id="Corps" fill="#BF906B" d="M311.5,89.1c0,0,9.4-14.2,12.2-16.8c2.8-2.7,7-1.9,10.5-5.9c3.5-4,4.9-5,6.6-7.6
			c1.7-2.5-0.4-7.3,2.4-11.2c2.8-3.9,15.6-5.3,29.6-10.9c14-5.6,24.1-11.1,24.1-11.1l20.5,4.6l24.3,26.1L419.2,76l-5.5-5.6l10.9-15
			l-7.7,1L389.8,60l14.5,9.9l-3.3,11.2l-3.3-3.1l2.8-6.2l-16.5-7.3l0.1-3.7c0,0-22.5,1.6-23.4,0.7c-0.9-0.9-6.2-6.6-6.2-6.6
			s-6.5,9-8.3,11.1c-1.8,2.1-13.7,6.3-16.5,8.3c-2.8,2-12.2,14.7-12.2,14.7H311.5z"/>
		<polygon id="Patte1" fill="#D3AD8F" points="399.6,38.4 403.6,47.1 397.6,59.4 407.7,69.6 401.5,81.7 400.9,81.1 404,69.9 
			389.3,60.9 		"/>
		<polygon id="Ventre" fill="#A27B5D" points="379,61.2 384,60.9 384.3,48.6 		"/>
		<polygon id="Cou" fill="#A27B5D" points="424.7,55.4 413.8,70.4 417,56.4 		"/>
		<path fill="#CEC4B9" d="M441.7,56.3c0,0,18.8-12.1,18.5-26.7c-0.5-21.7-26-24.9-26-24.9s14.3,9.8,15.5,20.3
			c1.1,10.3-3.8,14.9-6.1,16.1c-2.8,1.5-11.6,1.8-11.6,1.8L441.7,56.3z"/>
	</g>
</g>
<g>
	<path fill="#FFFFFF" d="M5,170.3V122l11.4-11.4h31.1L59,122.1v15.8H39.4v-8.9l-2.2-2.2H26.8l-2.2,2.2v34.6l2.3,2.3h10.3l2.2-2.2
		v-6.8H34v-14.5h25v27.9l-11.5,11.6H16.4L5,170.3z M17,180h30l10.2-10.2v-25.9H35.7V155h5.4v8.8l-3.6,3.6H26.5l-3.6-3.6v-35.4
		l3.6-3.6h11.1l3.6,3.6v7.7h16.1v-13.6l-10.3-10.3h-30L6.7,122.5v47.3L17,180z M9,168.4v-44.6l9.2-9.2h27.4l9.4,9.3v10.1H43.2V127
		l-4.4-4.4H25l-4.4,4.4v38.2l4.4,4.4h13.8l4.4-4.4v-12.4H38V146h17v22.4l-9.4,9.3H18.3L9,168.4z"/>
	<path fill="#FFFFFF" d="M59.5,181.7v-16h4.3v-39.1h-4.3v-16.1h44l11.4,11.4v18.3l-4.7,4.6l4.7,4.7v16.3h4.3v16H95.4V155l-2.2-2.1
		h-9.9v12.9h4.3v16H59.5z M85.8,180v-12.6h-4.3v-16.3h12.4l3.2,3.2V180h20.2v-12.6h-4.2v-17.2l-5.4-5.5l5.4-5.5v-16.6l-10.4-10.4
		H61.2v12.6h4.2v42.5h-4.2V180H85.8z M63.5,177.8v-8.1h4.2v-47h-4.2v-8.1h38.2l9.2,9.3v14.3l-6.4,6.5l6.4,6.5v18.4h4.3v8.1h-16
		v-24.4l-4.4-4.4H79.4v20.6h4.3v8.1H63.5z M94.8,140.9l4.5-4.5v-9.5l-4.4-4.3H79.4v18.2H94.8z M81.5,138.6v-13.7h11.9l3.7,3.7v6.5
		l-3.7,3.6H81.5z M93,136.9l2.3-2.2V129l-2.3-2.3h-9.8v10.3H93z"/>
	<path fill="#FFFFFF" d="M120.4,181.7v-16h4.3v-39.1h-4.3v-16.1h52.2v18.9h-16v-2.8h-12.5v11.5h2.8v-2.7H163v21.5H147v-2.7h-2.8
		v11.6h12.5v-2.9h16v18.9H120.4z M170.9,180v-15.4h-12.6v2.8h-15.9v-15h6.3v2.8h12.6v-18.1h-12.6v2.8h-6.3v-15h15.9v2.8h12.6v-15.4
		h-48.8v12.6h4.2v42.5h-4.2V180H170.9z M124.3,177.8v-8.1h4.2v-47h-4.2v-8.1h44.4v11h-8.2v-2.8h-20.2v19.4H151v-2.8h8.1v13.8H151
		v-2.8h-10.7v19.4h20.2v-2.8h8.2v11H124.3z"/>
	<path fill="#FFFFFF" d="M171,181.7v-16h4.3v-39.1H171v-16.1H194l19.6,32.6v-16.6h-4.3v-16.1h28.1v16.1h-4.3v39.1h4.3v16H214
		l-19.2-31.8v15.9h4.3v16H171z M197.3,180.1v-12.7H193v-23.6l21.7,36.3h20.9v-12.7h-4.3v-42.5h4.3v-12.6h-24.6v12.6h4.3v24.3
		l-22.2-36.9h-20.5v12.6h4.2v42.5h-4.2v12.7H197.3z M174.9,177.8v-8.1h4.2v-47h-4.2v-8.1h16.4l26.3,43.7v-35.6h-4.4v-8.1h20.3v8.1
		h-4.4v47h4.4v8.1h-17l-25.7-42.9v34.8h4.3v8.1H174.9z"/>
	<path fill="#FFFFFF" d="M240.1,170.3V122l11.4-11.4h31.3l11.4,11.4v48.4l-11.4,11.4h-31.3L240.1,170.3z M252.1,179.9h30.2
		l10.2-10.2v-47.1l-10.4-10.4h-30l-10.2,10.2v47.3L252.1,179.9z M244,168.4v-44.5l9.3-9.3h27.5l9.4,9.3v44.5l-9.4,9.3h-27.5
		L244,168.4z M260.1,169.6h14l4.4-4.4v-38.1l-4.5-4.5h-13.9l-4.4,4.4v38.2L260.1,169.6z M257.9,163.9v-35.6l3.6-3.6h11.4l3.6,3.6
		v35.6l-3.6,3.6h-11.4L257.9,163.9z M261.9,165.8h10.4l2.2-2.2v-34.7l-2.2-2.2h-10.5l-2.2,2.2v34.6L261.9,165.8z"/>
	<path fill="#FFFFFF" d="M294,181.7v-16h4.3v-39.1H294v-16.1h44l11.4,11.4v18.3l-4.7,4.7l4.7,4.7v20.7L338,181.7H294z M337.2,180
		l10.4-10.4v-19.3l-5.3-5.3l5.3-5.3v-17.1l-10.4-10.4h-41.6v12.6h4.2v42.5h-4.2V180H337.2z M297.9,177.8v-8.1h4.2v-47h-4.2v-8.1H336
		l9.3,9.3v14.5l-6.4,6.4l6.4,6.4v17.2l-9.3,9.3H297.9z M329.3,140.9l4.4-4.4V127l-4.4-4.4h-15.4v18.2H329.3z M329.3,169.6l4.4-4.4
		v-11.9l-4.4-4.4h-15.4v20.6H329.3z M316,138.6v-13.7h11.9l3.7,3.7v6.4l-3.7,3.7H316z M316,167.4v-16.3h11.9l3.7,3.7v8.9l-3.7,3.7
		H316z M327.5,136.9l2.3-2.3V129l-2.3-2.3h-9.8v10.3H327.5z M327.5,165.8l2.3-2.3v-8.2l-2.3-2.3h-9.8v12.9H327.5z"/>
	<path fill="#FFFFFF" d="M350.6,181.7v-16h4.3v-39.1h-4.3v-16.1h28.1v16.1h-4.3v39.1h12.8v-4.3h16.1v20.2H350.6z M401.5,180v-16.7
		h-12.6v4.2h-16.4v-42.6h4.4v-12.6h-24.6v12.6h4.3v42.5h-4.2V180H401.5z M354.5,177.8v-8.1h4.2v-47h-4.2v-8.1h20.2v8.1h-4.3v47H391
		v-4.3h8.2v12.4H354.5z"/>
	<path fill="#FFFFFF" d="M408,181.7v-16h4.3v-39.1H408v-16.1h52.2v18.9h-16v-2.8h-12.5v11.5h2.8v-2.7h16.1v21.5h-16.1v-2.7h-2.8
		v11.6h12.5v-2.9h16v18.9H408z M458.5,180v-15.4h-12.6v2.8H430v-15h6.3v2.8h12.6v-18.1h-12.6v2.8H430v-15h15.9v2.8h12.6v-15.4h-48.8
		v12.6h4.2v42.5h-4.2V180H458.5z M411.9,177.8v-8.1h4.2v-47h-4.2v-8.1h44.4v11h-8.2v-2.8h-20.2v19.4h10.7v-2.8h8.1v13.8h-8.1v-2.8
		h-10.7v19.4h20.2v-2.8h8.2v11H411.9z"/>
</g>
<g>
	<path fill="#FFFFFF" d="M5,89.6V73.4h3.7V33.7H5V17.4h19.9l14.5,27.9l14.4-27.9h20v16.3h-3.7v39.7h3.7v16.2H49.3V73.4H53V54.6
		L39.4,80.7L25.8,54.6v18.8h3.7v16.2H5z M28.1,87.8V75h-3.7V49l15.1,29.4l15-30.4V75h-3.7v12.8h21.6V75h-3.7V32h3.7V19.2H54.2
		L39.4,47.8L24.6,19.2H6.5V32h3.6V75H6.5v12.8H28.1z M8.5,85.6v-8.2h3.6V29.7H8.5v-8.2h13.8l17.2,33l17.1-33h14v8.2h-3.8v47.6h3.8
		v8.2H52.7v-8.2h3.7V41l-17,32.9L22.4,41v36.3h3.7v8.2H8.5z"/>
	<path fill="#FFFFFF" d="M84.7,89.6V73.4h3.7V33.7h-3.7V17.4h24.6v16.3h-3.7v39.7h3.7v16.2H84.7z M107.8,87.8V75.1h-3.8V32h3.8V19.2
		H86.2V32H90v43.2h-3.7v12.7H107.8z M88.2,85.6v-8.2h3.6V29.7h-3.6v-8.2h17.7v8.2h-3.7v47.6h3.7v8.2H88.2z"/>
	<path fill="#FFFFFF" d="M120.8,89.6V73.4h3.7L136,33.7h-2.8V17.4h33.1v16.3h-3.1l11.4,39.7h3.6v16.2h-23.8V73.4h2.1l-1-3.4h-11.9
		l-1.1,3.4h2.1v16.2H120.8z M143.2,87.8V75h-2.3l1.4-6.7h14.6l1.3,6.7h-2.3v12.8h20.9V75h-3.6L161.3,32h3.5V19.2h-30.1V32h3
		L125.8,75h-3.5v12.8H143.2z M124.3,85.6v-8.2h2.7l13.6-47.6h-3.9v-8.2h26.2v8.2h-4.4l13.6,47.6h2.7v8.2h-17v-8.2h3.4L158,66.1h-17
		l-3.2,11.2h3.4v8.2H124.3z M156.2,60.1l-6.7-23.5l-6.8,23.5H156.2z M145.7,58l3.8-14.3l3.7,14.3H145.7z M151.6,56.2l-2-6.9l-2,6.9
		H151.6z"/>
	<path fill="#FFFFFF" d="M189.2,78V29l10-11.5h27.2l10.1,11.6v16h-17.2V36l-2-2.3h-9.1l-2,2.3v35l2,2.4h9l2-2.3v-6.9h-4.7V49.5h21.9
		v28.3l-10.1,11.7h-27.2L189.2,78z M199.7,87.8H226l8.9-10.3V51.2h-18.8v11.2h4.7v9l-3.1,3.6H208l-3.1-3.6V35.6L208,32h9.7l3.1,3.6
		v7.8h14.1V29.6l-9-10.4h-26.2l-8.9,10.3v47.9L199.7,87.8z M192.7,76.1V30.8l8.1-9.4h24l8.2,9.5v10.2h-10.3v-7l-3.8-4.4h-12.1
		l-3.8,4.4v38.7l3.8,4.4h12.1l3.8-4.4V60.3h-4.5v-6.9H233v22.7l-8.2,9.5h-23.9L192.7,76.1z"/>
	<path fill="#FFFFFF" d="M246.8,89.6V73.4h3.7V33.7h-3.7V17.4h45.7v19.2h-14v-2.9h-10.9v11.6h2.5v-2.8h14.1v21.8h-14.1v-2.8h-2.5
		v11.7h10.9v-3h14v19.2H246.8z M291,87.8V72.2h-11V75h-13.9V59.8h5.5v2.9h11V44.3h-11v2.9h-5.5V32H280v2.9h11V19.2h-42.7V32h3.6V75
		h-3.6v12.8H291z M250.3,85.6v-8.2h3.6V29.7h-3.6v-8.2h38.9v11.1h-7.2v-2.9h-17.7v19.7h9.3v-2.9h7.1v14h-7.1v-2.9h-9.3v19.7h17.7
		v-2.9h7.2v11.1H250.3z"/>
</g>
</svg>
