<?xml version="1.0" encoding="utf-8"?>
<!-- Generator: Adobe Illustrator 16.0.0, SVG Export Plug-In . SVG Version: 6.00 Build 0)  -->
<!DOCTYPE svg PUBLIC "-//W3C//DTD SVG 1.1//EN" "http://www.w3.org/Graphics/SVG/1.1/DTD/svg11.dtd">
<svg version="1.1" id="Logo" xmlns="http://www.w3.org/2000/svg" xmlns:xlink="http://www.w3.org/1999/xlink" x="0px" y="0px"
	 width="595.28px" height="595.28px" viewBox="0 0 595.28 595.28" enable-background="new 0 0 595.28 595.28" xml:space="preserve">
<rect x="-35" y="-26" display="none" fill="#61162E" width="680" height="644"/>
<g id="Logo_1_">
	<g id="Montagne">
		<polygon id="Montagne_D" fill="none" stroke="#FFFFFF" stroke-width="4" stroke-miterlimit="10" points="413.973,417.635 
			364.956,332.736 309.867,237.32 354.293,175.008 440.785,296.322 527.281,417.635 		"/>
		<polygon id="Montagne_G" fill="none" stroke="#FFFFFF" stroke-width="4" stroke-miterlimit="10" points="240.986,417.635 
			68,417.635 154.495,267.825 240.986,118.013 327.479,267.825 413.973,417.635 		"/>
		<polyline id="Neige_G_Gros_2_" fill="#FFFFFF" points="240.986,246.114 240.986,121.633 320.06,258.594 269.385,237.977 		"/>
		<polygon id="Neige_G_petit" fill="#FFFFFF" points="179.895,262.649 247.895,380.428 197.768,333.219 220.22,372.904 
			179.895,342.617 		"/>
		<polygon id="Neige_G_Gros_1_" fill="#FFFFFF" points="354.294,177.539 432.216,286.83 395.662,257.825 418.114,286.83 
			354.294,246.985 		"/>
	</g>
	<g id="Bouquetin">
		<path id="Dos" fill="#CCA68C" d="M343.595,278.78c0,0,16.252-15.375,18.669-16.708c2.417-1.334,19.5-1.295,19.5-1.295v-7.955
			l20,6.25l5.29-10.5l65.291,91.25l-57.75-61.999l-48.666-11L343.595,278.78z"/>
		<path id="Queue" fill="#715B49" d="M254.427,312.824c0,0-9.834-9.334-11.5-12.5c-1.667-3.166,1.833-9.669,1.833-9.669
			s-12.333,6.669-12.333,9.501c-1.834,4.334,0.833,9.668,0,10.5c-0.834,0.834-6.334-3.832-6.334-3.832s0.448,9.773,1.167,11.332
			c0.719,1.561,4.333,10.666,10.333,10.5S254.427,312.824,254.427,312.824z"/>
		<path id="Patte2" fill="#715B49" d="M305.844,340.906c0,0,6,16-9,31.5s-21,13-21,13l15.407,32.418h-17.896l-23.969-36.531
			l31.541-29.303L305.844,340.906z"/>
		<path id="Patte21" fill="#99775F" d="M287.594,340.656c0,0-12.25,25.75-27.75,36.75c-15.5,11-52.75,11.75-52.75,11.75
			l-24.25,28.668h-6.75l26-33.334l62.167-49L287.594,340.656z"/>
		<polygon id="Patte12" fill="#715B49" points="320.273,417.824 332.271,417.824 359.095,364.656 339.322,355.156 		"/>
		<path id="Corps" fill="#B68B6C" d="M162.927,417.824c0,0,22.333-33.666,29-40c6.666-6.334,16.664-4.422,25-14
			s11.666-12.002,15.666-18.002s-0.999-17.332,5.667-26.666c6.667-9.332,37-12.666,70.333-26
			c33.335-13.333,57.335-26.333,57.335-26.333l48.666,11l57.75,61.999l-53.416,47.002l-13-13.334l26-35.668l-18.305,2.428
			l-64.695,8.572l34.416,23.418l-7.916,26.666l-7.771-7.406l6.563-14.719l-39.25-17.25l0.25-8.734c0,0-53.57,3.889-55.626,1.693
			s-14.667-15.668-14.667-15.668s-15.333,21.334-19.667,26.334s-32.667,15.002-39.333,19.668c-6.667,4.666-29,35-29,35H162.927z"/>
		<polygon id="Patte1" fill="#CCA68C" points="372.345,297.406 381.845,318.156 367.512,347.24 391.595,371.656 376.845,400.406 
			375.429,398.906 382.762,372.324 347.845,350.797 		"/>
		<polygon id="Ventre" fill="#99775F" points="323.346,351.594 335.22,350.797 335.845,321.656 		"/>
		<polygon id="Cou" fill="#99775F" points="431.929,337.822 405.929,373.49 413.624,340.25 		"/>
		<path fill="#C5BDB2" d="M472.345,339.822c0,0,44.758-28.666,44-63.417c-1.124-51.534-61.75-59.25-61.75-59.25
			s34,23.25,36.75,48.25c2.692,24.476-9.129,35.461-14.51,38.247c-6.675,3.455-27.49,4.254-27.49,4.254L472.345,339.822z"/>
	</g>
	<g id="Bulles">
		<g id="Bulle1">
			<g id="tige_rouge">
				<path fill="#BE1E2D" d="M281.417,223.656c-1.011-0.291-2.007-0.612-2.998-0.945c-0.247-0.086-0.502-0.153-0.732-0.272
					c-0.227-0.126-0.462-0.235-0.697-0.347l-1.403-0.672l-0.284-0.136v-0.315v-11.413l0.211,0.408l-0.66-0.467l-0.33-0.234
					c-0.121-0.063-0.23-0.141-0.311-0.262c-0.351-0.438-0.72-0.85-1.052-1.314c0.549,0.158,1.06,0.369,1.59,0.555
					c0.14,0.035,0.25,0.113,0.35,0.206l0.33,0.233l0.66,0.467l0.211,0.149v0.259v11.413l-0.284-0.451l1.404,0.672
					c0.234,0.112,0.466,0.227,0.707,0.325c0.237,0.104,0.45,0.262,0.671,0.399C279.681,222.477,280.557,223.051,281.417,223.656z"/>
			</g>
			
				<circle id="bulle" fill="#58595B" stroke="#A7A9AC" stroke-width="1.5" stroke-miterlimit="10" cx="280.523" cy="233.744" r="11.124"/>
			<path id="arc_milieu" fill="none" stroke="#A7A9AC" stroke-miterlimit="10" d="M269.399,233.744c0,2.857,22.247,2.706,22.247,0"
				/>
			<path id="arc_droit" fill="none" stroke="#A7A9AC" stroke-miterlimit="10" d="M278.214,224.86c-5.122,0-5.147,18.273,0,18.273"/>
			<path id="DemiC_haut" fill="#A7A9AC" d="M273.247,225.369h14.286c0,0-1.761-2.742-7.144-2.742S273.247,225.369,273.247,225.369z"
				/>
			<path id="DemiC_bas" fill="#A7A9AC" d="M287.665,242.598H273.38c0,0,1.761,2.742,7.143,2.742S287.665,242.598,287.665,242.598z"
				/>
			<path id="arc_droit_1_" fill="none" stroke="#A7A9AC" stroke-miterlimit="10" d="M283.038,243.134c5.122,0,5.147-18.273,0-18.273
				"/>
		</g>
		<g id="Bulle2">
			<g id="tige_rouge_1_">
				<path fill="#BE1E2D" d="M257.534,235.119c-1.011-0.291-2.007-0.612-2.998-0.945c-0.247-0.086-0.502-0.153-0.732-0.272
					c-0.227-0.126-0.462-0.235-0.697-0.347l-1.403-0.672l-0.284-0.136v-0.315v-11.413l0.211,0.408l-0.66-0.467l-0.33-0.234
					c-0.121-0.063-0.23-0.141-0.311-0.262c-0.351-0.438-0.72-0.85-1.052-1.314c0.549,0.158,1.06,0.37,1.59,0.555
					c0.14,0.035,0.25,0.113,0.35,0.206l0.33,0.233l0.66,0.467l0.211,0.149v0.259v11.413l-0.284-0.451l1.404,0.672
					c0.234,0.112,0.466,0.227,0.707,0.325c0.237,0.104,0.45,0.262,0.671,0.399C255.798,233.939,256.674,234.513,257.534,235.119z"/>
			</g>
			
				<circle id="bulle_1_" fill="#58595B" stroke="#A7A9AC" stroke-width="1.5" stroke-miterlimit="10" cx="256.64" cy="245.207" r="11.124"/>
			<path id="arc_milieu_1_" fill="none" stroke="#A7A9AC" stroke-miterlimit="10" d="M245.517,245.207
				c0,2.857,22.247,2.706,22.247,0"/>
			<path id="arc_droit_3_" fill="none" stroke="#A7A9AC" stroke-miterlimit="10" d="M254.331,236.323
				c-5.122,0-5.147,18.273,0,18.273"/>
			<path id="DemiC_haut_1_" fill="#A7A9AC" d="M249.364,236.832h14.286c0,0-1.761-2.742-7.144-2.742
				S249.364,236.832,249.364,236.832z"/>
			<path id="DemiC_bas_1_" fill="#A7A9AC" d="M263.782,254.061h-14.285c0,0,1.761,2.742,7.143,2.742
				S263.782,254.061,263.782,254.061z"/>
			<path id="arc_droit_2_" fill="none" stroke="#A7A9AC" stroke-miterlimit="10" d="M259.155,254.596c5.122,0,5.147-18.273,0-18.273
				"/>
		</g>
		<g id="Bulle3">
			<g id="tige_rouge_6_">
				<path fill="#BE1E2D" d="M233.287,246.008c-1.011-0.291-2.007-0.612-2.998-0.945c-0.247-0.086-0.502-0.153-0.732-0.272
					c-0.227-0.126-0.462-0.235-0.697-0.347l-1.403-0.672l-0.284-0.136v-0.315v-11.413l0.211,0.408l-0.66-0.467l-0.33-0.234
					c-0.121-0.063-0.23-0.141-0.311-0.262c-0.351-0.438-0.72-0.85-1.052-1.314c0.549,0.158,1.06,0.369,1.59,0.555
					c0.14,0.035,0.25,0.113,0.35,0.206l0.33,0.233l0.66,0.467l0.211,0.149v0.259v11.413l-0.284-0.451l1.404,0.672
					c0.234,0.112,0.466,0.227,0.707,0.325c0.237,0.104,0.45,0.262,0.671,0.399C231.551,244.829,232.427,245.402,233.287,246.008z"/>
			</g>
			
				<circle id="bulle_3_" fill="#58595B" stroke="#A7A9AC" stroke-width="1.5" stroke-miterlimit="10" cx="232.393" cy="256.096" r="11.124"/>
			<path id="arc_milieu_3_" fill="none" stroke="#A7A9AC" stroke-miterlimit="10" d="M221.27,256.096c0,2.857,22.247,2.706,22.247,0
				"/>
			<path id="arc_droit_7_" fill="none" stroke="#A7A9AC" stroke-miterlimit="10" d="M230.084,247.212
				c-5.122,0-5.147,18.273,0,18.273"/>
			<path id="DemiC_haut_3_" fill="#A7A9AC" d="M225.117,247.721h14.286c0,0-1.761-2.742-7.144-2.742
				S225.117,247.721,225.117,247.721z"/>
			<path id="DemiC_bas_3_" fill="#A7A9AC" d="M239.535,264.95H225.25c0,0,1.761,2.742,7.143,2.742S239.535,264.95,239.535,264.95z"
				/>
			<path id="arc_droit_6_" fill="none" stroke="#A7A9AC" stroke-miterlimit="10" d="M234.908,265.485c5.122,0,5.147-18.273,0-18.273
				"/>
		</g>
		<g id="Bulle4">
			<g id="tige_rouge_4_">
				<path fill="#BE1E2D" d="M209.404,257.47c-1.011-0.291-2.007-0.612-2.998-0.945c-0.247-0.086-0.502-0.153-0.732-0.272
					c-0.227-0.126-0.462-0.235-0.697-0.347l-1.403-0.672l-0.284-0.136v-0.315V243.37l0.211,0.408l-0.66-0.467l-0.33-0.234
					c-0.121-0.063-0.23-0.141-0.311-0.262c-0.351-0.438-0.72-0.85-1.052-1.314c0.549,0.158,1.06,0.37,1.59,0.555
					c0.14,0.035,0.25,0.113,0.35,0.206l0.33,0.233l0.66,0.467l0.211,0.149v0.259v11.413l-0.284-0.451l1.404,0.672
					c0.234,0.112,0.466,0.227,0.707,0.325c0.237,0.104,0.45,0.262,0.671,0.399C207.668,256.291,208.544,256.865,209.404,257.47z"/>
			</g>
			
				<circle id="bulle_2_" fill="#58595B" stroke="#A7A9AC" stroke-width="1.5" stroke-miterlimit="10" cx="208.51" cy="267.558" r="11.124"/>
			<path id="arc_milieu_2_" fill="none" stroke="#A7A9AC" stroke-miterlimit="10" d="M197.387,267.558
				c0,2.857,22.247,2.706,22.247,0"/>
			<path id="arc_droit_5_" fill="none" stroke="#A7A9AC" stroke-miterlimit="10" d="M206.201,258.674
				c-5.122,0-5.147,18.273,0,18.273"/>
			<path id="DemiC_haut_2_" fill="#A7A9AC" d="M201.234,259.183h14.286c0,0-1.761-2.742-7.144-2.742
				S201.234,259.183,201.234,259.183z"/>
			<path id="DemiC_bas_2_" fill="#A7A9AC" d="M215.652,276.412h-14.285c0,0,1.761,2.742,7.143,2.742
				S215.652,276.412,215.652,276.412z"/>
			<path id="arc_droit_4_" fill="none" stroke="#A7A9AC" stroke-miterlimit="10" d="M211.025,276.948c5.122,0,5.147-18.273,0-18.273
				"/>
		</g>
		
			<line id="Fil" fill="none" stroke="#414042" stroke-width="1.5" stroke-miterlimit="10" x1="290.87" y1="200.952" x2="160.927" y2="260.983"/>
		<g id="Roues_1">
			
				<ellipse transform="matrix(0.9068 -0.4216 0.4216 0.9068 -61.6244 135.1617)" fill="#BE1E2D" cx="274.822" cy="206.929" rx="1.214" ry="0.889"/>
			
				<ellipse transform="matrix(0.9068 -0.4215 0.4215 0.9068 -61.1364 135.7183)" fill="#BE1E2D" cx="276.458" cy="206.164" rx="1.214" ry="0.889"/>
			
				<ellipse transform="matrix(0.9068 -0.4215 0.4215 0.9068 -62.5163 133.8118)" fill="#BE1E2D" cx="271.455" cy="208.332" rx="1.214" ry="0.889"/>
			
				<ellipse transform="matrix(0.9068 -0.4215 0.4215 0.9068 -62.0486 134.4623)" fill="#BE1E2D" cx="273.09" cy="207.567" rx="1.214" ry="0.889"/>
		</g>
		<g id="Roues_2">
			
				<ellipse transform="matrix(0.9068 -0.4216 0.4216 0.9068 -68.7563 125.7824)" fill="#BE1E2D" cx="250.047" cy="218.366" rx="1.214" ry="0.889"/>
			
				<ellipse transform="matrix(0.9068 -0.4215 0.4215 0.9068 -68.2645 126.3422)" fill="#BE1E2D" cx="251.683" cy="217.601" rx="1.214" ry="0.889"/>
			
				<ellipse transform="matrix(0.9068 -0.4215 0.4215 0.9068 -69.6445 124.4357)" fill="#BE1E2D" cx="246.68" cy="219.77" rx="1.214" ry="0.889"/>
			
				<ellipse transform="matrix(0.9068 -0.4215 0.4215 0.9068 -69.1788 125.0845)" fill="#BE1E2D" cx="248.315" cy="219.004" rx="1.214" ry="0.889"/>
		</g>
		<g id="Roues_2_1_">
			
				<ellipse transform="matrix(0.9068 -0.4216 0.4216 0.9068 -75.4702 116.7918)" fill="#BE1E2D" cx="226.36" cy="229.053" rx="1.214" ry="0.889"/>
			
				<ellipse transform="matrix(0.9068 -0.4215 0.4215 0.9068 -74.9749 117.3547)" fill="#BE1E2D" cx="227.996" cy="228.288" rx="1.214" ry="0.889"/>
			
				<ellipse transform="matrix(0.9068 -0.4215 0.4215 0.9068 -76.3548 115.4482)" fill="#BE1E2D" cx="222.993" cy="230.456" rx="1.214" ry="0.889"/>
			
				<ellipse transform="matrix(0.9068 -0.4215 0.4215 0.9068 -75.891 116.0953)" fill="#BE1E2D" cx="224.628" cy="229.691" rx="1.214" ry="0.889"/>
		</g>
		<g id="Roues_2_2_">
			
				<ellipse transform="matrix(0.9068 -0.4216 0.4216 0.9068 -82.4974 107.5165)" fill="#BE1E2D" cx="201.873" cy="240.305" rx="1.214" ry="0.889"/>
			
				<ellipse transform="matrix(0.9068 -0.4215 0.4215 0.9068 -81.9983 108.0826)" fill="#BE1E2D" cx="203.508" cy="239.54" rx="1.214" ry="0.889"/>
			
				<ellipse transform="matrix(0.9068 -0.4215 0.4215 0.9068 -83.3782 106.1761)" fill="#BE1E2D" cx="198.505" cy="241.708" rx="1.214" ry="0.889"/>
			
				<ellipse transform="matrix(0.9068 -0.4215 0.4215 0.9068 -82.9164 106.8215)" fill="#BE1E2D" cx="200.14" cy="240.943" rx="1.214" ry="0.889"/>
		</g>
	</g>
</g>
<g>
	<path fill="#FFFFFF" d="M72.727,488.788v-48.377l11.383-11.382h31.099l11.484,11.484v15.752h-19.615v-8.943l-2.236-2.236H94.476
		l-2.236,2.236v34.555l2.338,2.338h10.265l2.236-2.236v-6.809h-5.387v-14.533h25.001v27.948l-11.484,11.586H84.11L72.727,488.788z
		 M84.72,498.443h29.981l10.163-10.163v-25.916H103.42v11.077h5.386v8.843l-3.557,3.557H94.171l-3.557-3.557v-35.368l3.557-3.557
		h11.078l3.557,3.557v7.724h16.058v-13.618l-10.265-10.266H84.618L74.455,440.92v47.259L84.72,498.443z M76.691,486.857V442.24
		l9.248-9.248h27.441l9.35,9.35v10.063h-11.79v-6.911l-4.37-4.37H92.749l-4.37,4.37v38.213l4.37,4.371h13.822l4.37-4.371v-12.398
		h-5.183v-6.81h16.973v22.359l-9.35,9.35H86.041L76.691,486.857z"/>
	<path fill="#FFFFFF" d="M127.202,500.171v-15.956h4.269v-39.129h-4.269v-16.057h44.006l11.383,11.382v18.294l-4.675,4.573
		l4.675,4.675v16.262h4.269v15.956h-23.782v-26.729l-2.236-2.134h-9.858v12.907h4.269v15.956H127.202z M153.524,498.443v-12.603
		h-4.269V469.58h12.399l3.151,3.15v25.713h20.225v-12.603h-4.167v-17.176l-5.387-5.488l5.387-5.487v-16.566l-10.367-10.367h-41.567
		v12.604h4.167v42.481h-4.167v12.603H153.524z M131.166,496.207v-8.13h4.167v-46.954h-4.167v-8.131h38.213l9.249,9.35v14.33
		l-6.403,6.505l6.403,6.505v18.396h4.269v8.13H166.94v-24.392l-4.371-4.37h-15.448v20.632h4.269v8.13H131.166z M162.468,459.314
		l4.472-4.471v-9.453l-4.371-4.268h-15.448v18.191H162.468z M149.256,457.079v-13.72h11.891l3.659,3.658v6.504l-3.659,3.558H149.256
		z M160.74,455.352l2.337-2.236v-5.691l-2.337-2.338h-9.757v10.266H160.74z"/>
	<path fill="#FFFFFF" d="M188.077,500.171v-15.956h4.269v-39.129h-4.269v-16.057h52.239v18.902H224.36v-2.846h-12.501v11.484h2.846
		v-2.744h16.058v21.547h-16.058v-2.744h-2.846v11.586h12.501v-2.947h15.956v18.903H188.077z M238.588,498.443v-15.448h-12.603v2.846
		h-15.854v-15.042h6.301v2.846h12.602v-18.09h-12.602v2.846h-6.301v-15.041h15.854v2.846h12.603v-15.449h-48.784v12.604h4.167
		v42.481h-4.167v12.603H238.588z M192.041,496.207v-8.13h4.167v-46.954h-4.167v-8.131h44.413v10.977h-8.232v-2.846h-20.225v19.412
		h10.671v-2.846h8.13v13.821h-8.13v-2.846h-10.671v19.412h20.225v-2.846h8.232v10.976H192.041z"/>
	<path fill="#FFFFFF" d="M238.69,500.171v-15.956h4.269v-39.129h-4.269v-16.057h23.07l19.615,32.623v-16.566h-4.269v-16.057h28.05
		v16.057h-4.269v39.129h4.269v15.956H281.68l-19.208-31.811v15.854h4.269v15.956H238.69z M265.013,498.545v-12.704h-4.269v-23.578
		l21.749,36.282h20.937v-12.704h-4.269v-42.481h4.269v-12.604h-24.595v12.604h4.269v24.289l-22.156-36.893h-20.53v12.604h4.167
		v42.481h-4.167v12.704H265.013z M242.654,496.207v-8.13h4.167v-46.954h-4.167v-8.131h16.362l26.323,43.702v-35.571h-4.37v-8.131
		h20.326v8.131h-4.37v46.954h4.37v8.13h-16.972l-25.713-42.889v34.759h4.269v8.13H242.654z"/>
	<path fill="#FFFFFF" d="M307.799,488.788v-48.377l11.383-11.382h31.303l11.383,11.382v48.377l-11.383,11.383h-31.303
		L307.799,488.788z M319.792,498.342h30.185l10.163-10.163v-47.056l-10.366-10.367h-29.981l-10.163,10.164v47.259L319.792,498.342z
		 M311.764,486.857v-44.516l9.35-9.35h27.542l9.351,9.35v44.516l-9.351,9.35h-27.542L311.764,486.857z M327.82,488.077h14.025
		l4.371-4.371v-38.111l-4.473-4.472H327.82l-4.369,4.37v38.213L327.82,488.077z M325.585,482.386v-35.571l3.558-3.558h11.383
		l3.557,3.558v35.571l-3.557,3.557h-11.383L325.585,482.386z M329.65,484.215h10.366l2.235-2.236v-34.656l-2.235-2.236h-10.468
		l-2.236,2.236v34.555L329.65,484.215z"/>
	<path fill="#FFFFFF" d="M361.664,500.171v-15.956h4.268v-39.129h-4.268v-16.057h44.006l11.383,11.382v18.294l-4.676,4.675
		l4.676,4.676v20.732l-11.383,11.383H361.664z M404.959,498.443l10.365-10.366v-19.311l-5.285-5.285l5.285-5.284v-17.074
		l-10.365-10.367h-41.568v12.604h4.168v42.481h-4.168v12.603H404.959z M365.627,496.207v-8.13h4.167v-46.954h-4.167v-8.131h38.111
		l9.35,9.35v14.533l-6.402,6.403l6.402,6.403v17.176l-9.35,9.35H365.627z M397.031,459.314l4.369-4.369v-9.452l-4.369-4.37h-15.447
		v18.191H397.031z M397.031,488.077l4.369-4.371v-11.891l-4.369-4.37h-15.447v20.632H397.031z M383.718,457.079v-13.72h11.89
		l3.66,3.658v6.402l-3.66,3.659H383.718z M383.718,485.841V469.58h11.89l3.66,3.658v8.943l-3.66,3.659H383.718z M395.201,455.352
		l2.338-2.338v-5.59l-2.338-2.338h-9.756v10.266H395.201z M395.201,484.215l2.338-2.338v-8.232l-2.338-2.337h-9.756v12.907H395.201z
		"/>
	<path fill="#FFFFFF" d="M418.271,500.171v-15.956h4.268v-39.129h-4.268v-16.057h28.051v16.057h-4.27v39.129h12.807v-4.269h16.057
		v20.225H418.271z M469.189,498.443v-16.668h-12.604v4.167h-16.361v-42.583h4.369v-12.604H420v12.604h4.268v42.481h-4.166v12.603
		H469.189z M422.234,496.207v-8.13h4.168v-46.954h-4.168v-8.131h20.225v8.131h-4.268v46.954h20.529v-4.269h8.232v12.398H422.234z"/>
	<path fill="#FFFFFF" d="M475.691,500.171v-15.956h4.27v-39.129h-4.27v-16.057h52.24v18.902h-15.957v-2.846h-12.5v11.484h2.846
		v-2.744h16.057v21.547H502.32v-2.744h-2.846v11.586h12.5v-2.947h15.957v18.903H475.691z M526.203,498.443v-15.448h-12.602v2.846
		h-15.855v-15.042h6.301v2.846h12.604v-18.09h-12.604v2.846h-6.301v-15.041h15.855v2.846h12.602v-15.449H477.42v12.604h4.168v42.481
		h-4.168v12.603H526.203z M479.656,496.207v-8.13h4.166v-46.954h-4.166v-8.131h44.412v10.977h-8.23v-2.846h-20.227v19.412h10.672
		v-2.846h8.131v13.821h-8.131v-2.846h-10.672v19.412h20.227v-2.846h8.23v10.976H479.656z"/>
</g>
<g>
	<path fill="#FFFFFF" d="M134.17,110.67V94.714h4.269V55.586h-4.269V39.528h22.766l16.566,27.542l16.464-27.542h22.867v16.058
		h-4.269v39.128h4.269v15.956h-28.05V94.714h4.167V76.217l-15.448,25.713l-15.55-25.713v18.497h4.269v15.956H134.17z
		 M160.493,108.943V96.34h-4.269V70.627l17.277,28.965l17.176-29.981V96.34h-4.269v12.603h24.697V96.34h-4.269V53.858h4.269V41.256
		h-20.733l-16.871,28.253l-16.973-28.253h-20.631v12.603h4.167V96.34h-4.167v12.603H160.493z M138.134,106.707v-8.13h4.167V51.622
		h-4.167v-8.13h15.753l19.615,32.522l19.513-32.522h15.957v8.13h-4.371v46.955h4.371v8.13h-20.327v-8.13h4.269V62.802l-19.412,32.42
		l-19.412-32.42v35.775h4.269v8.13H138.134z"/>
	<path fill="#FFFFFF" d="M225.232,110.67V94.714h4.269V55.586h-4.269V39.528h28.05v16.058h-4.269v39.128h4.269v15.956H225.232z
		 M251.555,108.943V96.442h-4.37V53.858h4.37V41.256h-24.595v12.603h4.269v42.583h-4.269v12.501H251.555z M229.196,106.707v-8.13
		h4.167V51.622h-4.167v-8.13h20.225v8.13h-4.269v46.955h4.269v8.13H229.196z"/>
	<path fill="#FFFFFF" d="M266.494,110.67V94.714h4.269l13.009-39.128h-3.15V39.528h37.807v16.058h-3.557l13.008,39.128h4.168v15.956
		h-27.238V94.714h2.439l-1.118-3.354h-13.619l-1.219,3.354h2.439v15.956H266.494z M292.003,108.943V96.34h-2.643l1.626-6.606h16.667
		l1.525,6.606h-2.643v12.603h23.883V96.34h-4.064l-13.619-42.482h3.963V41.256h-34.351v12.603h3.456L272.185,96.34h-3.964v12.603
		H292.003z M270.458,106.707v-8.13h3.049l15.55-46.955h-4.472v-8.13h29.981v8.13h-4.979l15.549,46.955h3.049v8.13h-19.411v-8.13
		h3.862l-3.659-11.078h-19.412l-3.659,11.078h3.862v8.13H270.458z M306.943,81.604l-7.623-23.172l-7.825,23.172H306.943z
		 M294.951,79.571l4.37-14.126l4.27,14.126H294.951z M301.658,77.742l-2.338-6.81l-2.337,6.81H301.658z"/>
	<path fill="#FFFFFF" d="M344.648,99.288V50.911l11.383-11.382h31.098l11.484,11.484v15.753H379v-8.944l-2.236-2.236h-10.367
		l-2.235,2.236v34.555l2.338,2.338h10.265L379,92.478v-6.809h-5.387V71.136h25v27.949l-11.484,11.586h-31.098L344.648,99.288z
		 M356.641,108.943h29.98l10.164-10.163V72.864h-21.444v11.077h5.386v8.843l-3.557,3.557h-11.078l-3.557-3.557V57.416l3.557-3.557
		h11.078l3.557,3.557v7.724h16.059V51.521L386.52,41.256h-29.98l-10.164,10.163v47.259L356.641,108.943z M348.611,97.357V52.74
		l9.248-9.249h27.441l9.35,9.35v10.062h-11.789v-6.911l-4.37-4.371H364.67l-4.371,4.371v38.213l4.371,4.371h13.821l4.37-4.371
		V81.807h-5.184v-6.81h16.973v22.359l-9.35,9.35h-27.339L348.611,97.357z"/>
	<path fill="#FFFFFF" d="M410.402,110.67V94.714h4.27V55.586h-4.27V39.528h52.24v18.903h-15.957v-2.846h-12.5V67.07h2.846v-2.744
		h16.057v21.546h-16.057v-2.744h-2.846v11.586h12.5v-2.947h15.957v18.903H410.402z M460.914,108.943V93.495h-12.602v2.846h-15.855
		V81.298h6.301v2.846h12.604v-18.09h-12.604V68.9h-6.301V53.858h15.855v2.846h12.602V41.256h-48.783v12.603h4.168V96.34h-4.168
		v12.603H460.914z M414.367,106.707v-8.13h4.166V51.622h-4.166v-8.13h44.412v10.976h-8.23v-2.846h-20.227v19.412h10.672v-2.846
		h8.131V82.01h-8.131v-2.846h-10.672v19.412h20.227v-2.846h8.23v10.976H414.367z"/>
</g>
</svg>
