<?xml version="1.0" encoding="utf-8"?>
<!-- Generator: Adobe Illustrator 16.0.0, SVG Export Plug-In . SVG Version: 6.00 Build 0)  -->
<!DOCTYPE svg PUBLIC "-//W3C//DTD SVG 1.1//EN" "http://www.w3.org/Graphics/SVG/1.1/DTD/svg11.dtd">
<svg version="1.1" id="Logo" xmlns="http://www.w3.org/2000/svg" xmlns:xlink="http://www.w3.org/1999/xlink" x="0px" y="0px"
	 width="595.28px" height="595.28px" viewBox="0 0 595.28 595.28" enable-background="new 0 0 595.28 595.28" xml:space="preserve">
<rect x="-35" y="-26" display="none" fill="#61172E" width="680" height="644"/>
<g id="Logo_1_">
	<g id="Bouquetin">
		<path id="Dos" fill="#CCA68C" d="M452.533,227.573c0,0,6.837-6.468,7.854-7.03c1.018-0.561,8.205-0.544,8.205-0.544v-3.347
			l8.414,2.629l2.226-4.417l27.47,38.391l-24.297-26.084l-20.476-4.627L452.533,227.573z"/>
		<path id="Queue" fill="#715B49" d="M415.018,241.896c0,0-4.139-3.927-4.84-5.259c-0.699-1.333,0.772-4.068,0.772-4.068
			s-5.188,2.805-5.188,3.999c-0.771,1.822,0.35,4.067,0,4.416c-0.351,0.351-2.665-1.612-2.665-1.612s0.188,4.112,0.491,4.767
			c0.302,0.657,1.823,4.488,4.347,4.418C410.459,248.488,415.018,241.896,415.018,241.896z"/>
		<path id="Patte2" fill="#715B49" d="M436.649,253.711c0,0,2.524,6.731-3.786,13.252c-6.312,6.521-8.836,5.47-8.836,5.47
			l6.482,13.639h-7.528l-10.085-15.37l13.27-12.329L436.649,253.711z"/>
		<path id="Patte21" fill="#99775F" d="M428.971,253.606c0,0-5.153,10.834-11.674,15.462c-6.521,4.627-22.195,4.943-22.195,4.943
			L384.9,286.073h-2.84l10.938-14.025l26.156-20.615L428.971,253.606z"/>
		<polygon id="Patte12" fill="#715B49" points="442.721,286.073 447.769,286.073 459.054,263.704 450.735,259.707 		"/>
		<path id="Corps" fill="#B68B6C" d="M376.521,286.073c0,0,9.396-14.165,12.201-16.829c2.806-2.664,7.011-1.861,10.52-5.89
			c3.507-4.029,4.907-5.05,6.59-7.574c1.684-2.525-0.42-7.292,2.385-11.219c2.804-3.926,15.566-5.33,29.591-10.939
			c14.024-5.61,24.122-11.079,24.122-11.079l20.476,4.627l24.297,26.084l-22.474,19.776l-5.469-5.611l10.939-15.005l-7.703,1.021
			l-27.218,3.606l14.479,9.853l-3.331,11.22l-3.27-3.116l2.762-6.193l-16.514-7.258l0.104-3.675c0,0-22.538,1.636-23.403,0.713
			c-0.865-0.924-6.17-6.592-6.17-6.592s-6.452,8.976-8.275,11.079c-1.822,2.104-13.742,6.312-16.548,8.275
			c-2.806,1.963-12.201,14.726-12.201,14.726H376.521z"/>
		<polygon id="Patte1" fill="#CCA68C" points="464.629,235.41 468.625,244.139 462.595,256.376 472.728,266.649 466.522,278.744 
			465.926,278.114 469.012,266.93 454.321,257.872 		"/>
		<polygon id="Ventre" fill="#99775F" points="444.014,258.208 449.009,257.872 449.272,245.613 		"/>
		<polygon id="Cou" fill="#99775F" points="489.698,252.414 478.759,267.419 481.995,253.436 		"/>
		<path fill="#C5BDB2" d="M506.701,253.255c0,0,18.831-12.061,18.513-26.681c-0.474-21.682-25.98-24.928-25.98-24.928
			s14.305,9.783,15.462,20.301c1.133,10.297-3.841,14.919-6.104,16.09c-2.81,1.454-11.566,1.79-11.566,1.79L506.701,253.255z"/>
	</g>
</g>
<g>
	<path fill="#FFFFFF" d="M70.013,367.334v-48.377l11.383-11.383h31.099l11.484,11.484v15.752h-19.615v-8.943l-2.236-2.236H91.762
		l-2.236,2.236v34.555l2.338,2.338h10.265l2.236-2.236v-6.809h-5.387v-14.533h25.001v27.949l-11.484,11.586H81.396L70.013,367.334z
		 M82.006,376.988h29.981l10.163-10.162V340.91h-21.444v11.076h5.386v8.844l-3.557,3.557H91.458L87.9,360.83v-35.369l3.557-3.557
		h11.078l3.557,3.557v7.725h16.058v-13.619l-10.265-10.266H81.904l-10.164,10.164v47.26L82.006,376.988z M73.977,365.402v-44.617
		l9.248-9.248h27.441l9.35,9.35v10.063h-11.79v-6.91l-4.37-4.371H90.035l-4.37,4.371v38.213l4.37,4.371h13.822l4.37-4.371v-12.398
		h-5.183v-6.811h16.973v22.359l-9.35,9.35H83.327L73.977,365.402z"/>
	<path fill="#FFFFFF" d="M124.488,378.717V362.76h4.269v-39.129h-4.269v-16.057h44.006l11.383,11.383v18.293l-4.675,4.574
		l4.675,4.674v16.262h4.269v15.957h-23.782v-26.73l-2.236-2.133h-9.858v12.906h4.269v15.957H124.488z M150.811,376.988v-12.602
		h-4.269v-16.262h12.399l3.151,3.15v25.713h20.225v-12.602h-4.167v-17.176l-5.387-5.488l5.387-5.488v-16.566l-10.367-10.367h-41.567
		v12.604h4.167v42.482h-4.167v12.602H150.811z M128.452,374.752v-8.129h4.167v-46.955h-4.167v-8.131h38.213l9.249,9.35v14.33
		l-6.403,6.506l6.403,6.504v18.396h4.269v8.129h-15.956v-24.391l-4.371-4.371h-15.448v20.633h4.269v8.129H128.452z M159.754,337.859
		l4.472-4.471v-9.453l-4.371-4.268h-15.448v18.191H159.754z M146.542,335.625v-13.721h11.891l3.659,3.658v6.504l-3.659,3.559
		H146.542z M158.026,333.896l2.337-2.236v-5.691l-2.337-2.338h-9.757v10.266H158.026z"/>
	<path fill="#FFFFFF" d="M185.363,378.717V362.76h4.269v-39.129h-4.269v-16.057h52.239v18.902h-15.956v-2.846h-12.501v11.484h2.846
		v-2.744h16.058v21.547h-16.058v-2.744h-2.846v11.586h12.501v-2.947h15.956v18.904H185.363z M235.875,376.988v-15.447h-12.603v2.846
		h-15.854v-15.043h6.301v2.846h12.602V334.1h-12.602v2.846h-6.301v-15.041h15.854v2.846h12.603v-15.449h-48.784v12.604h4.167v42.482
		h-4.167v12.602H235.875z M189.327,374.752v-8.129h4.167v-46.955h-4.167v-8.131h44.413v10.977h-8.232v-2.846h-20.225v19.412h10.671
		v-2.846h8.13v13.822h-8.13v-2.846h-10.671v19.412h20.225v-2.846h8.232v10.975H189.327z"/>
	<path fill="#FFFFFF" d="M235.976,378.717V362.76h4.269v-39.129h-4.269v-16.057h23.07l19.615,32.623v-16.566h-4.269v-16.057h28.05
		v16.057h-4.269v39.129h4.269v15.957h-23.477l-19.208-31.811v15.854h4.269v15.957H235.976z M262.299,377.09v-12.703h-4.269v-23.578
		l21.749,36.281h20.937v-12.703h-4.269v-42.482h4.269v-12.604h-24.595v12.604h4.269v24.289l-22.156-36.893h-20.53v12.604h4.167
		v42.482h-4.167v12.703H262.299z M239.94,374.752v-8.129h4.167v-46.955h-4.167v-8.131h16.362l26.323,43.703v-35.572h-4.37v-8.131
		h20.326v8.131h-4.37v46.955h4.37v8.129h-16.972l-25.713-42.889v34.76h4.269v8.129H239.94z"/>
	<path fill="#FFFFFF" d="M305.085,367.334v-48.377l11.383-11.383h31.303l11.383,11.383v48.377l-11.383,11.383h-31.303
		L305.085,367.334z M317.078,376.887h30.185l10.163-10.162v-47.057l-10.366-10.367h-29.981l-10.163,10.164v47.26L317.078,376.887z
		 M309.05,365.402v-44.516l9.35-9.35h27.542l9.351,9.35v44.516l-9.351,9.35h-27.542L309.05,365.402z M325.106,366.623h14.025
		l4.371-4.371v-38.111l-4.473-4.473h-13.924l-4.369,4.371v38.213L325.106,366.623z M322.871,360.932v-35.572l3.558-3.557h11.383
		l3.557,3.557v35.572l-3.557,3.557h-11.383L322.871,360.932z M326.937,362.76h10.366l2.235-2.236v-34.656l-2.235-2.236h-10.468
		l-2.236,2.236v34.555L326.937,362.76z"/>
	<path fill="#FFFFFF" d="M358.95,378.717V362.76h4.268v-39.129h-4.268v-16.057h44.006l11.383,11.383v18.293l-4.676,4.676
		l4.676,4.676v20.732l-11.383,11.383H358.95z M402.245,376.988l10.365-10.365v-19.311l-5.285-5.285l5.285-5.285v-17.074
		l-10.365-10.367h-41.568v12.604h4.168v42.482h-4.168v12.602H402.245z M362.913,374.752v-8.129h4.167v-46.955h-4.167v-8.131h38.111
		l9.35,9.35v14.533l-6.402,6.404l6.402,6.402v17.176l-9.35,9.35H362.913z M394.317,337.859l4.369-4.369v-9.451l-4.369-4.371H378.87
		v18.191H394.317z M394.317,366.623l4.369-4.371v-11.891l-4.369-4.371H378.87v20.633H394.317z M381.004,335.625v-13.721h11.89
		l3.66,3.658v6.402l-3.66,3.66H381.004z M381.004,364.387v-16.262h11.89l3.66,3.658v8.943l-3.66,3.66H381.004z M392.487,333.896
		l2.338-2.338v-5.59l-2.338-2.338h-9.756v10.266H392.487z M392.487,362.76l2.338-2.338v-8.232l-2.338-2.336h-9.756v12.906H392.487z"
		/>
	<path fill="#FFFFFF" d="M415.558,378.717V362.76h4.268v-39.129h-4.268v-16.057h28.051v16.057h-4.27v39.129h12.807v-4.268h16.057
		v20.225H415.558z M466.476,376.988V360.32h-12.604v4.168h-16.361v-42.584h4.369v-12.604h-24.594v12.604h4.268v42.482h-4.166v12.602
		H466.476z M419.521,374.752v-8.129h4.168v-46.955h-4.168v-8.131h20.225v8.131h-4.268v46.955h20.529v-4.27h8.232v12.398H419.521z"/>
	<path fill="#FFFFFF" d="M472.978,378.717V362.76h4.27v-39.129h-4.27v-16.057h52.24v18.902h-15.957v-2.846h-12.5v11.484h2.846
		v-2.744h16.057v21.547h-16.057v-2.744h-2.846v11.586h12.5v-2.947h15.957v18.904H472.978z M523.489,376.988v-15.447h-12.602v2.846
		h-15.855v-15.043h6.301v2.846h12.604V334.1h-12.604v2.846h-6.301v-15.041h15.855v2.846h12.602v-15.449h-48.783v12.604h4.168v42.482
		h-4.168v12.602H523.489z M476.942,374.752v-8.129h4.166v-46.955h-4.166v-8.131h44.412v10.977h-8.23v-2.846h-20.227v19.412h10.672
		v-2.846h8.131v13.822h-8.131v-2.846h-10.672v19.412h20.227v-2.846h8.23v10.975H476.942z"/>
</g>
<g>
	<path fill="#FFFFFF" d="M70.013,286.568v-16.177h3.736v-39.674h-3.736v-16.281H89.94l14.5,27.926l14.411-27.926h20.016v16.281
		h-3.736v39.674h3.736v16.177h-24.552v-16.177h3.647v-18.756l-13.521,26.071l-13.611-26.071v18.756h3.736v16.177H70.013z
		 M93.054,284.818v-12.779h-3.736v-26.071l15.123,29.369l15.034-30.398v27.101h-3.736v12.779h21.617v-12.779h-3.736v-43.073h3.736
		v-12.778h-18.148l-14.767,28.648l-14.856-28.648H71.525v12.778h3.647v43.073h-3.647v12.779H93.054z M73.483,282.55v-8.244h3.647
		v-47.608h-3.647v-8.243h13.789l17.169,32.975l17.08-32.975h13.967v8.243h-3.825v47.608h3.825v8.244h-17.792v-8.244h3.736v-36.273
		l-16.991,32.873L87.45,238.033v36.273h3.736v8.244H73.483z"/>
	<path fill="#FFFFFF" d="M149.719,286.568v-16.177h3.736v-39.674h-3.736v-16.281h24.553v16.281h-3.736v39.674h3.736v16.177H149.719z
		 M172.76,284.818v-12.676h-3.825v-43.176h3.825v-12.778h-21.528v12.778h3.736v43.176h-3.736v12.676H172.76z M153.189,282.55v-8.244
		h3.647v-47.608h-3.647v-8.243h17.703v8.243h-3.736v47.608h3.736v8.244H153.189z"/>
	<path fill="#FFFFFF" d="M185.836,286.568v-16.177h3.736l11.387-39.674h-2.758v-16.281h33.092v16.281h-3.113l11.386,39.674h3.648
		v16.177h-23.842v-16.177h2.135l-0.979-3.4h-11.92l-1.067,3.4h2.135v16.177H185.836z M208.165,284.818v-12.779h-2.313l1.423-6.697
		h14.59l1.335,6.697h-2.313v12.779h20.905v-12.779h-3.558l-11.921-43.073h3.469v-12.778h-30.068v12.778h3.025l-11.921,43.073h-3.469
		v12.779H208.165z M189.306,282.55v-8.244h2.668l13.611-47.608h-3.915v-8.243h26.243v8.243h-4.359l13.61,47.608h2.668v8.244h-16.99
		v-8.244h3.38l-3.203-11.232h-16.991l-3.202,11.232h3.38v8.244H189.306z M221.242,257.097l-6.672-23.495l-6.85,23.495H221.242z
		 M210.745,255.036l3.825-14.323l3.737,14.323H210.745z M216.615,253.182l-2.046-6.905l-2.045,6.905H216.615z"/>
	<path fill="#FFFFFF" d="M254.245,275.027v-49.051l9.963-11.541h27.22l10.052,11.645v15.972h-17.167v-9.068l-1.958-2.268h-9.074
		l-1.957,2.268v35.036l2.046,2.371h8.985l1.958-2.268v-6.903h-4.715v-14.737h21.883v28.337l-10.052,11.748h-27.22L254.245,275.027z
		 M264.742,284.818h26.242l8.897-10.306v-26.277H281.11v11.232h4.714v8.965l-3.113,3.606h-9.697l-3.113-3.606v-35.86l3.113-3.607
		h9.697l3.113,3.607v7.83h14.057v-13.808l-8.986-10.408h-26.242l-8.897,10.305v47.917L264.742,284.818z M257.714,273.07v-45.239
		l8.095-9.377h24.019l8.184,9.48v10.202h-10.318v-7.007l-3.826-4.431H271.77l-3.827,4.431v38.745l3.827,4.432h12.097l3.826-4.432
		v-12.571h-4.537v-6.903h14.855v22.671l-8.184,9.48h-23.93L257.714,273.07z"/>
	<path fill="#FFFFFF" d="M311.8,286.568v-16.177h3.736v-39.674H311.8v-16.281h45.726v19.167h-13.967v-2.886h-10.941v11.645h2.491
		v-2.782h14.054v21.847h-14.054v-2.782h-2.491v11.748h10.941v-2.988h13.967v19.166H311.8z M356.013,284.818v-15.665h-11.03v2.885
		h-13.879v-15.25h5.516v2.885h11.031v-18.342h-11.031v2.885h-5.516v-15.251h13.879v2.885h11.03v-15.664h-42.7v12.778h3.647v43.073
		h-3.647v12.779H356.013z M315.27,282.55v-8.244h3.647v-47.608h-3.647v-8.243h38.874v11.128h-7.204v-2.885h-17.703v19.683h9.34
		v-2.885h7.117v14.014h-7.117v-2.885h-9.34v19.683h17.703v-2.885h7.204v11.129H315.27z"/>
</g>
</svg>
